<svg width="534" height="158" viewBox="0 0 534 158" fill="none" xmlns="http://www.w3.org/2000/svg">
<path d="M456.537 6.27103L447.87 12.5377L456.937 12.9377C461.87 13.2044 469.87 13.2044 474.803 12.9377L483.87 12.5377L474.937 6.13769C470.003 2.67103 465.87 -0.128972 465.603 0.00436115C465.337 0.00436115 461.337 2.93769 456.537 6.27103Z" fill="#8C2157"/>
<path d="M11.6034 5.07097C3.60345 10.9376 -0.129887 17.7376 0.00344623 26.5376C0.13678 33.071 1.60345 37.071 13.2034 60.5376C20.2701 75.2043 31.4701 98.1376 37.8701 111.471C49.6035 135.604 49.6035 135.738 56.8034 139.738C60.6701 142.004 64.2701 143.871 64.9368 143.871C65.4701 143.871 65.8701 139.604 65.8701 134.404C65.8701 112.804 73.3368 82.271 82.6701 65.471C89.3368 53.6043 99.8701 43.3376 110.803 38.1376C119.337 34.1376 120.67 33.871 135.47 33.871C144.137 33.871 151.203 33.471 151.203 32.8043C151.203 32.271 150.67 30.8043 149.87 29.471C149.203 28.271 146.803 23.2043 144.67 18.271L140.803 9.33763L132.003 6.67096C114.537 1.33763 101.737 1.87097 88.5368 8.53763C75.6034 15.071 64.6701 32.0043 59.3368 53.7376C56.6701 64.4043 54.0034 90.271 53.8701 106.271C53.8701 109.471 53.3368 111.738 52.6701 111.338C50.8034 110.138 36.6701 88.271 30.9368 77.7376C25.2034 66.9376 20.5368 54.4043 20.5368 49.3376C20.5368 43.7376 23.8701 40.1376 29.6034 39.6043L34.6701 39.2043L27.4701 20.1376C23.4701 9.73763 19.4701 1.2043 18.5368 1.2043C17.7368 1.2043 14.5368 2.93764 11.6034 5.07097Z" fill="#045833"/>
<path d="M368.537 14.271C373.203 20.1377 377.737 32.0043 378.803 41.471C379.47 47.3377 379.337 47.871 376.67 47.871C372.67 47.871 372.803 52.9377 376.937 53.471C379.87 53.871 379.87 54.1377 380.27 78.1377L380.537 102.404L384.537 105.204L388.537 108.004V95.071C388.537 82.1377 388.537 82.1377 393.47 76.1377C399.337 68.9377 408.403 64.4043 412.537 66.5377C416.27 68.5377 420.537 75.7377 420.537 79.871C420.403 84.271 416.537 92.8043 411.87 98.4043L408.003 102.804L411.337 105.338C413.07 106.671 415.07 107.604 415.737 107.471C418.137 106.671 425.87 94.4043 427.203 89.071C429.203 81.6043 427.603 74.9377 422.27 69.071C414.137 60.0043 403.337 59.471 393.87 67.471L389.87 70.8043V62.0043V53.2043H415.203H440.537V59.2043C440.537 62.4043 439.87 66.671 438.937 68.5377C438.137 70.4043 437.737 72.271 438.137 72.671C438.537 73.071 442.137 72.4043 446.003 71.3377C456.67 68.1377 464.003 68.5377 467.87 72.5377C472.27 76.9377 472.137 78.8043 467.603 77.6043C461.87 76.0043 449.737 76.671 444.537 78.9377C432.537 84.1377 429.203 92.9377 436.003 101.071C441.07 107.204 448.137 108.671 459.337 105.871C468.003 103.871 468.403 103.871 472.803 106.538C475.203 108.004 477.737 109.204 478.27 109.204C478.937 109.204 479.203 100.138 478.937 89.071L478.537 68.9377L474.137 65.071C470.403 61.7377 468.803 61.2043 461.87 61.2043C457.603 61.2043 452.537 61.7377 450.67 62.5377C447.337 63.7377 447.203 63.6043 447.203 58.5377V53.2043H490.537C532.937 53.2043 533.87 53.2043 533.87 50.5377C533.87 47.871 532.937 47.871 461.203 47.871H388.537V43.871C388.537 34.671 384.27 21.2043 378.67 12.8043C376.67 9.73767 375.337 9.20434 370.27 9.20434H364.403L368.537 14.271ZM465.203 85.7377C467.737 86.8043 469.87 88.671 469.87 89.871C469.87 96.8043 439.47 102.804 436.937 96.271C436.137 94.1377 439.603 89.7377 445.203 86.4043C450.003 83.3377 458.803 83.071 465.203 85.7377Z" fill="#045833"/>
<path d="M324.537 13.071C313.603 16.4043 303.737 26.1377 298.937 38.4043C296.537 44.5377 296.003 48.5377 296.003 60.5377C296.003 76.671 298.137 84.5377 306.003 96.271C313.603 107.871 328.937 111.204 344.937 104.671L352.537 101.471V107.338V113.204H358.537H364.537V86.5377V59.871H359.203H353.87V70.271C353.87 82.8043 351.337 88.5377 343.737 92.8043C328.803 101.338 314.403 95.3377 309.87 78.671C302.937 53.071 316.403 22.5377 334.67 22.5377C339.47 22.5377 341.203 23.3377 345.07 27.3377C347.603 30.0043 350.403 34.1377 351.203 36.671C352.67 40.9377 353.07 41.2043 358.67 41.2043C365.737 41.2043 366.003 39.871 361.337 29.7377C357.737 22.0043 352.537 16.4043 346.27 13.7377C341.737 11.7377 330.137 11.471 324.537 13.071Z" fill="#045833"/>
<path d="M437.87 19.2044L433.337 22.5377H465.87H498.537L493.604 19.2044C488.804 16.0044 488.137 15.8711 465.604 15.8711C443.337 16.0044 442.404 16.1377 437.87 19.2044Z" fill="#8C2157"/>
<path d="M420.937 30.6711C418.537 32.2711 416.537 33.7377 416.537 34.0044C416.537 34.2711 438.537 34.5377 465.604 34.5377L514.537 34.4044L510.537 31.2044L506.537 27.8711H465.87C426.937 27.8711 425.07 28.0044 420.937 30.6711Z" fill="#8C2157"/>
<path d="M406.537 40.5376L402.537 43.7376L465.204 43.871H527.87L523.87 40.5376L519.87 37.3376L465.204 37.2043H410.537L406.537 40.5376Z" fill="#8C2157"/>
<path d="M213.204 58.8043C211.07 67.871 204.537 102.004 204.537 104.138C204.537 105.871 205.47 106.538 208.404 106.538C211.737 106.538 212.404 105.871 213.604 100.804C214.404 97.7377 215.337 92.671 215.87 89.471C216.937 83.071 222.137 75.871 226.004 75.871C230.004 75.871 231.07 79.7377 229.204 88.5377C225.204 107.738 225.204 106.538 230.27 106.538H234.67L236.937 94.1377C239.87 78.5377 239.87 74.1377 236.804 71.471C233.737 68.671 227.337 68.5377 223.47 71.3377C219.337 74.1377 218.804 73.3377 220.404 66.4043C222.67 56.9377 222.404 55.871 217.87 55.871C214.937 55.871 213.737 56.5377 213.204 58.8043Z" fill="#045833"/>
<path d="M504.937 64.5377C499.604 67.471 498.67 67.6043 499.07 64.8043C499.07 64.271 496.804 63.871 493.87 63.871H488.537V84.5377V105.071L492.537 107.204C494.67 108.271 496.67 109.204 497.204 109.204C497.604 109.204 497.87 103.338 497.87 96.271C497.87 81.471 500.537 74.1377 507.737 68.5377C513.47 64.1377 521.337 64.0043 522.67 68.1377C523.47 71.071 520.937 74.1377 514.67 77.871C512.537 79.071 512.67 79.6043 516.27 82.9377L520.137 86.671L523.47 84.0043C528.804 79.7377 530.537 74.271 528.004 69.3377C523.737 61.071 514.27 59.071 504.937 64.5377Z" fill="#045833"/>
<path d="M100.27 71.3376C97.2035 72.9376 93.8701 76.9376 93.8701 78.8043C93.8701 79.071 95.8701 79.471 98.4035 79.6043C101.47 79.871 103.203 79.2043 103.737 77.871C104.803 74.8043 112.137 75.2043 113.203 78.5376C114.537 82.5376 113.203 83.471 104.803 84.5376C95.4701 85.6043 91.3368 88.4043 90.4035 94.5376C88.8035 103.871 98.9368 110.004 106.803 104.538C109.337 102.804 109.737 102.804 110.403 104.538C110.803 105.738 112.803 106.538 115.337 106.538C118.803 106.538 119.337 106.138 118.803 103.871C118.403 102.538 118.937 96.671 120.003 90.9376C122.403 77.071 122.403 76.271 118.537 72.5376C114.803 68.671 106.137 68.1376 100.27 71.3376ZM110.67 92.8043C109.07 99.071 102.67 102.004 99.3368 98.0043C97.0701 95.3376 98.9368 92.0043 103.737 90.671C110.803 88.5376 111.603 88.8043 110.67 92.8043Z" fill="#045833"/>
<path d="M145.87 71.471C143.603 73.071 142.537 73.2044 142.137 72.1377C141.337 69.6044 134.137 70.1377 133.337 72.8044C132.27 76.1377 127.203 102.804 127.203 104.804C127.203 105.871 128.937 106.538 131.07 106.538C135.47 106.538 135.203 107.071 138.537 91.6044C140.137 83.6044 141.47 80.671 144.137 78.5377C148.003 75.471 152.003 75.071 152.937 77.6044C153.603 79.2044 151.203 94.671 149.203 102.938C148.27 106.538 148.403 106.671 152.67 106.271C156.67 105.871 157.203 105.338 158.803 99.2044C159.737 95.471 160.937 88.5377 161.337 83.471C162.137 75.871 161.87 74.1377 159.87 71.871C156.937 68.5377 150.27 68.4044 145.87 71.471Z" fill="#045833"/>
<path d="M179.204 70.1377C174.804 71.7377 171.204 76.4043 171.204 80.5377C171.204 85.471 173.47 87.871 182.27 91.7377C187.07 93.7377 188.67 95.071 188.27 96.8043C187.604 100.404 179.604 100.804 176.004 97.471C174.137 95.6043 172.137 94.9377 169.604 95.471C165.47 96.271 165.337 96.4043 167.204 100.004C171.337 107.604 188.804 108.938 194.804 102.004C201.07 94.5377 197.737 87.871 185.47 83.3377C180.937 81.6043 179.204 80.271 179.47 78.671C180.004 75.7377 186.537 75.2043 190.404 77.7377C192.537 79.071 194.804 79.471 197.337 78.671L201.204 77.7377L196.937 73.471C193.47 69.871 191.737 69.2043 186.937 69.3377C183.737 69.3377 180.27 69.7377 179.204 70.1377Z" fill="#045833"/>
<path d="M252.537 73.2043C250.27 75.3376 248.67 77.7376 249.204 78.5376C250.404 80.5376 256.004 80.1376 257.87 77.7376C258.937 76.671 261.204 75.871 263.07 76.1376C265.737 76.4043 266.67 77.3376 266.937 80.0043C267.337 83.471 267.07 83.6043 259.07 84.5376C248.937 85.7376 244.537 89.3376 244.537 96.5376C244.537 105.204 253.47 109.471 261.204 104.404C264.27 102.404 264.537 102.404 264.537 104.404C264.537 105.871 265.737 106.538 268.537 106.538C272.137 106.538 272.537 106.138 272.537 102.671C272.537 100.538 273.47 94.271 274.537 88.9376C277.07 77.2043 276.404 73.8709 271.204 71.2043C264.67 67.8709 257.47 68.5376 252.537 73.2043ZM265.87 89.7376C265.87 89.871 265.204 92.0043 264.404 94.4043C262.937 98.671 258.537 100.938 254.537 99.3376C252.137 98.4043 251.87 94.0043 254.27 92.1376C256.137 90.5376 265.87 88.4043 265.87 89.7376Z" fill="#045833"/>
<path d="M295.203 139.871C295.203 157.204 295.203 157.204 298.403 157.204C301.203 157.204 301.47 156.671 301.337 150.138C301.337 144.004 301.603 143.204 304.27 142.804C306.537 142.404 308.137 144.004 311.87 149.738C315.47 155.471 317.337 157.204 319.87 157.204C324.27 157.204 324.137 155.871 318.403 148.404C314.67 143.604 314.003 141.871 315.47 141.071C316.403 140.404 317.603 139.871 318.003 139.871C319.07 139.871 321.87 133.471 321.87 131.071C321.87 130.004 320.403 127.604 318.537 125.871C315.737 122.938 314.137 122.538 305.203 122.538H295.203V139.871ZM314.003 130.004C316.537 133.071 313.87 136.404 308.67 136.938C302.137 137.604 300.937 136.671 301.603 132.004C302.137 128.271 302.537 127.871 307.203 127.871C310.137 127.871 312.937 128.804 314.003 130.004Z" fill="#8C2157"/>
<path d="M381.604 125.738C380.27 126.671 379.204 128.538 379.204 129.738C379.204 130.938 378.67 131.871 377.87 131.871C377.204 131.871 376.537 133.071 376.537 134.538C376.537 136.004 377.204 137.204 377.87 137.204C378.67 137.204 379.204 140.538 379.204 144.671C379.204 154.138 380.804 157.204 385.87 157.204C388.937 157.204 389.87 156.671 389.87 154.538C389.87 153.071 388.937 151.871 387.87 151.871C386.27 151.871 385.87 150.138 385.87 144.538C385.87 138.938 386.27 137.204 387.87 137.204C388.937 137.204 389.87 136.004 389.87 134.538C389.87 133.071 388.937 131.871 387.87 131.871C386.537 131.871 385.87 130.538 385.87 127.871C385.87 123.471 385.07 123.071 381.604 125.738Z" fill="#8C2157"/>
<path d="M522.937 125.738C521.603 126.671 520.537 128.538 520.537 129.738C520.537 130.938 520.003 131.871 519.203 131.871C518.537 131.871 517.87 133.071 517.87 134.538C517.87 136.004 518.537 137.204 519.203 137.204C520.003 137.204 520.537 140.671 520.537 145.071C520.537 155.738 521.203 157.204 526.67 157.204C530.27 157.204 531.203 156.671 531.203 154.538C531.203 153.071 530.27 151.871 529.203 151.871C527.603 151.871 527.203 150.138 527.203 144.538C527.203 138.938 527.603 137.204 529.203 137.204C530.27 137.204 531.203 136.004 531.203 134.538C531.203 133.071 530.27 131.871 529.203 131.871C527.87 131.871 527.203 130.538 527.203 127.871C527.203 123.471 526.403 123.071 522.937 125.738Z" fill="#8C2157"/>
<path d="M330.137 134.804C326.403 138.938 325.337 144.138 327.203 149.871C328.937 155.338 331.87 157.204 338.27 157.204C342.27 157.204 347.203 154.138 347.203 151.604C347.203 149.471 342.537 149.471 340.27 151.471C337.337 154.004 333.603 152.671 332.803 148.671C332.403 146.938 333.603 146.538 340.67 146.538H348.937L348.003 142.271C346.137 132.671 336.137 128.538 330.137 134.804ZM340.27 137.471C343.337 140.538 342.003 142.538 337.203 142.538C332.003 142.538 330.803 139.738 334.937 137.338C337.87 135.604 338.403 135.604 340.27 137.471Z" fill="#8C2157"/>
<path d="M354.803 134.271C352.137 137.204 351.87 141.604 354.403 143.738C355.337 144.538 358.537 146.004 361.337 147.071C364.137 148.004 366.537 149.604 366.537 150.671C366.537 153.338 361.203 153.738 358.67 151.204C357.337 149.871 355.47 149.338 353.737 149.871L350.937 150.804L354.003 154.004C356.27 156.404 358.403 157.204 362.403 157.204C368.67 157.204 370.137 156.404 372.27 152.271C375.07 147.071 371.203 143.071 361.603 140.671C359.47 140.271 357.87 139.204 357.87 138.404C357.87 136.138 361.87 135.471 365.203 137.204C366.937 138.138 369.337 138.538 370.67 138.004C372.803 137.204 372.803 136.938 370.537 134.538C367.337 130.938 357.87 130.938 354.803 134.271Z" fill="#8C2157"/>
<path d="M396.137 134.271C394.803 135.604 393.87 137.071 393.87 137.471C393.87 139.204 398.803 139.338 400.27 137.604C402.67 135.071 405.603 135.471 407.07 138.404C408.403 140.671 407.737 141.071 402.003 142.538C394.003 144.404 391.203 148.938 394.537 154.004C396.803 157.604 404.137 158.404 406.937 155.604C408.137 154.404 408.537 154.404 408.537 155.604C408.537 156.538 409.87 157.204 411.603 157.204C414.403 157.204 414.537 156.938 413.87 146.804C413.47 140.804 412.403 135.338 411.337 134.138C408.803 130.938 398.937 131.071 396.137 134.271ZM408.537 146.938C408.537 150.138 405.07 153.471 402.403 152.938C398.67 152.271 398.403 148.138 402.137 146.671C406.537 144.804 408.537 144.938 408.537 146.938Z" fill="#8C2157"/>
<path d="M420.537 142.004C420.537 154.404 421.87 157.204 427.604 157.204C430.004 157.204 432.67 156.538 433.47 155.738C434.537 154.671 435.204 154.671 435.737 155.738C436.27 156.538 437.87 157.204 439.337 157.204C441.604 157.204 441.87 156.138 441.87 144.538C441.87 132.004 441.87 131.871 438.537 131.871C435.47 131.871 435.337 132.271 434.937 141.338C434.67 148.938 434.004 151.204 432.137 152.404C428.27 154.804 425.87 150.138 425.87 140.271C425.87 132.804 425.604 131.871 423.204 131.871C420.804 131.871 420.537 132.804 420.537 142.004Z" fill="#8C2157"/>
<path d="M448.537 144.538C448.537 156.271 448.67 157.204 451.204 157.204C453.47 157.204 453.87 156.271 453.87 150.671C453.87 141.471 455.87 136.671 459.204 137.604C460.67 138.004 461.87 137.738 461.87 137.204C461.87 136.538 462.27 135.204 462.67 134.004C463.337 132.404 462.67 131.871 460.27 131.871C458.537 131.871 456.404 132.538 455.47 133.471C454.27 134.671 453.87 134.671 453.87 133.471C453.87 132.538 452.67 131.871 451.204 131.871C448.67 131.871 448.537 132.804 448.537 144.538Z" fill="#8C2157"/>
<path d="M467.737 134.671C465.603 136.938 465.603 137.604 467.203 138.538C469.737 140.138 471.203 140.138 471.203 138.671C471.203 136.938 474.803 135.871 477.203 136.671C481.07 138.271 479.07 141.071 472.937 142.804C468.003 144.271 466.27 145.471 465.337 148.138C462.937 154.804 470.937 159.604 478.003 155.871C479.737 154.938 480.537 154.938 480.537 155.871C480.537 156.538 481.737 157.204 483.203 157.204C485.603 157.204 485.87 156.271 485.87 147.471C485.87 134.938 483.87 131.871 476.003 131.871C471.87 131.871 469.603 132.671 467.737 134.671ZM479.203 148.404C479.203 150.538 478.27 152.004 476.537 152.538C471.07 154.271 468.937 148.671 474.27 146.538C478.67 144.804 479.203 144.938 479.203 148.404Z" fill="#8C2157"/>
<path d="M492.537 144.538C492.537 156.271 492.67 157.204 495.204 157.204C497.604 157.204 497.87 156.271 497.87 148.671C497.87 142.671 498.537 139.471 500.004 138.004C504.67 133.338 507.204 136.938 507.204 148.138C507.204 156.938 507.337 157.204 510.537 157.204C513.737 157.204 513.87 156.938 513.87 147.471C513.87 140.938 513.204 136.804 511.737 134.804C509.604 131.604 504.67 130.938 500.404 133.204C498.67 134.138 497.87 134.138 497.87 133.204C497.87 132.538 496.67 131.871 495.204 131.871C492.67 131.871 492.537 132.804 492.537 144.538Z" fill="#8C2157"/>
</svg>
