<?xml version="1.0" standalone="no"?>
<!DOCTYPE svg PUBLIC "-//W3C//DTD SVG 20010904//EN"
 "http://www.w3.org/TR/2001/REC-SVG-20010904/DTD/svg10.dtd">
<svg version="1.0" xmlns="http://www.w3.org/2000/svg"
 width="2136.000000pt" height="2136.000000pt" viewBox="0 0 2136.000000 2136.000000"
 preserveAspectRatio="xMidYMid meet">
<metadata>
Created by potrace 1.14, written by Peter Selinger 2001-2017
</metadata>
<g transform="translate(0.000000,2136.000000) scale(0.100000,-0.100000)"
fill="#000000" stroke="none">
<path d="M18445 13719 c-93 -66 -249 -177 -345 -247 l-175 -127 45 -7 c151
-24 1176 -24 1330 0 l45 7 -195 140 c-250 179 -511 355 -524 354 -6 0 -87 -54
-181 -120z"/>
<path d="M685 13771 c-179 -81 -426 -289 -528 -444 -56 -84 -104 -193 -129
-294 -32 -125 -32 -350 0 -475 45 -182 130 -379 404 -943 102 -209 360 -740
573 -1180 851 -1757 859 -1773 961 -1927 70 -104 141 -162 339 -275 190 -108
260 -142 286 -143 25 0 28 29 39 320 12 341 25 512 56 737 96 716 309 1456
566 1965 262 520 694 963 1163 1193 232 113 338 148 505 165 52 6 304 14 560
20 450 9 540 16 562 38 8 8 -15 64 -78 194 -48 101 -143 309 -210 463 l-122
280 -203 63 c-383 118 -591 162 -856 183 -329 27 -657 -37 -970 -186 -183 -88
-295 -167 -444 -315 -356 -353 -636 -899 -788 -1535 -98 -415 -186 -1209 -211
-1919 -10 -292 -19 -366 -45 -366 -30 0 -170 195 -418 580 -325 507 -535 881
-661 1182 -111 263 -187 498 -208 642 -30 214 62 379 247 439 28 9 106 22 175
28 69 6 127 13 129 15 7 7 -308 835 -404 1064 -73 173 -177 387 -205 423 -25
32 -32 32 -85 8z"/>
<path d="M14592 13453 c174 -206 230 -288 318 -468 110 -224 199 -509 235
-752 20 -135 23 -266 7 -286 -7 -9 -40 -18 -79 -22 -54 -6 -72 -12 -95 -35
-33 -33 -37 -77 -11 -121 17 -29 84 -69 116 -69 34 0 66 -24 81 -61 9 -21 20
-96 26 -166 9 -122 30 -1155 30 -1543 l0 -186 154 -107 c85 -59 157 -107 160
-107 3 0 6 177 6 393 1 578 8 623 124 777 234 311 552 519 763 497 111 -12
229 -129 327 -324 79 -157 83 -245 22 -426 -70 -209 -195 -422 -356 -605 -49
-57 -90 -107 -90 -112 0 -14 153 -128 216 -161 31 -16 64 -29 74 -29 62 0 321
375 421 610 46 107 68 201 76 312 10 166 -22 301 -108 455 -59 104 -235 283
-336 342 -194 114 -399 134 -611 61 -109 -37 -214 -101 -345 -211 -58 -49
-111 -89 -117 -89 -7 0 -10 112 -10 345 l0 345 1016 0 1016 0 -5 -212 c-5
-224 -15 -283 -77 -452 -29 -79 -24 -110 16 -114 36 -4 148 20 365 76 319 83
544 82 705 -1 81 -42 214 -196 214 -248 0 -42 -32 -46 -158 -18 -96 22 -130
24 -332 23 -183 -1 -247 -5 -343 -22 -225 -41 -403 -129 -543 -267 -174 -173
-206 -345 -103 -555 58 -116 180 -240 289 -293 196 -96 373 -100 745 -16 101
23 220 43 270 46 l90 5 80 -42 c230 -123 288 -151 297 -142 23 23 30 235 24
757 -3 297 -9 610 -13 696 l-6 156 -119 104 c-144 125 -172 144 -246 172 -52
19 -77 21 -292 21 -253 1 -331 -8 -469 -51 l-84 -26 -19 22 c-16 21 -18 43
-18 202 l0 179 1368 0 c1357 1 1897 9 2001 29 73 15 93 34 89 85 -3 38 -6 42
-43 54 -102 33 -211 35 -2990 41 l-2770 6 -6 170 c-4 94 -14 213 -23 265 -62
345 -202 715 -364 955 -97 144 -125 154 -396 155 -170 0 -178 -1 -164 -17z
m3893 -3002 c107 -28 211 -80 263 -132 36 -36 42 -48 42 -82 0 -36 -6 -47 -52
-92 -160 -154 -598 -274 -958 -262 -199 6 -286 40 -305 119 -19 74 117 241
286 351 160 104 253 128 484 123 123 -3 179 -8 240 -25z"/>
<path d="M13210 13353 c-186 -18 -302 -52 -459 -134 -235 -123 -466 -340 -623
-584 -67 -103 -152 -278 -192 -395 -78 -223 -102 -451 -93 -895 6 -315 22
-469 68 -655 59 -237 158 -447 330 -700 303 -446 858 -583 1474 -366 55 19
163 62 240 95 l140 60 3 -235 2 -234 240 0 240 0 0 1063 c0 585 -2 1066 -4
1068 -2 2 -96 3 -209 1 l-204 -3 -6 -312 c-7 -326 -20 -456 -58 -582 -61 -202
-187 -338 -420 -453 -444 -219 -870 -127 -1121 242 -163 238 -250 618 -235
1016 26 660 307 1249 710 1488 188 111 443 133 597 51 102 -54 305 -281 375
-419 13 -25 37 -81 54 -126 39 -101 68 -130 147 -145 78 -15 268 -6 317 14 76
33 72 107 -19 322 -127 299 -269 497 -459 642 -81 62 -224 130 -310 148 -138
28 -387 42 -525 28z"/>
<path d="M17878 13189 c-195 -15 -258 -40 -440 -174 l-102 -75 1299 0 c761 0
1295 4 1289 9 -5 5 -71 50 -147 100 -156 103 -214 125 -368 141 -119 12 -1370
11 -1531 -1z"/>
<path d="M17915 12720 c-912 -9 -932 -11 -1110 -132 -128 -87 -140 -96 -131
-105 4 -4 156 -10 339 -14 409 -9 3557 -11 3557 -3 0 3 -12 16 -27 28 -15 11
-86 69 -158 129 l-130 107 -810 -2 c-445 -1 -1134 -5 -1530 -8z"/>
<path d="M16375 12314 c-22 -20 -91 -77 -154 -127 l-113 -92 1252 -3 c688 -1
1812 -1 2498 0 l1246 3 -155 127 -154 127 -2190 0 -2190 0 -40 -35z"/>
<path d="M8601 11587 c-39 -20 -62 -60 -82 -143 -50 -207 -245 -1210 -310
-1591 -37 -217 -35 -233 26 -259 44 -18 155 -18 199 0 18 7 43 29 54 48 29 46
73 222 122 483 54 287 94 391 207 530 113 139 225 182 318 121 50 -33 60 -69
60 -221 -1 -132 -5 -158 -67 -465 -37 -179 -69 -350 -73 -381 -6 -56 6 -107
28 -121 17 -11 307 -10 307 1 0 5 29 168 64 363 98 533 100 553 101 738 0 158
-1 168 -26 215 -51 101 -168 159 -319 159 -107 0 -171 -19 -280 -84 -167 -99
-176 -74 -100 265 53 235 51 318 -6 344 -33 15 -193 14 -223 -2z"/>
<path d="M20433 11355 c-63 -16 -140 -48 -250 -105 -188 -96 -216 -100 -221
-33 -3 39 -6 43 -40 53 -20 5 -115 10 -210 10 l-172 0 2 -822 3 -823 167 -84
c93 -47 171 -81 175 -77 13 12 22 138 23 311 2 526 41 809 136 998 69 136 184
265 306 344 252 163 558 132 558 -56 0 -95 -79 -187 -265 -309 -104 -68 -115
-78 -115 -101 0 -15 258 -281 273 -281 17 0 186 141 232 193 96 109 143 249
123 372 -23 145 -155 313 -299 379 -133 62 -270 72 -426 31z"/>
<path d="M4215 11056 c-149 -29 -261 -90 -358 -195 -87 -94 -120 -172 -79
-185 44 -14 218 -24 264 -16 64 12 76 20 107 66 15 21 41 46 58 57 77 45 226
26 288 -36 43 -43 61 -122 41 -172 -24 -57 -91 -80 -332 -115 -254 -37 -375
-78 -464 -158 -113 -100 -160 -306 -106 -462 37 -103 145 -206 255 -240 131
-41 256 -21 393 65 40 25 80 45 89 45 10 0 28 -18 41 -42 37 -66 81 -83 211
-83 138 0 137 -1 130 138 -7 121 5 232 58 545 62 373 67 490 20 565 -29 47
-139 151 -186 175 -106 54 -293 75 -430 48z m206 -805 c23 -18 23 -21 12 -86
-15 -88 -56 -169 -115 -228 -60 -60 -117 -86 -185 -87 -63 0 -99 13 -136 48
-41 39 -57 74 -57 127 0 39 5 51 41 90 49 54 112 85 239 118 154 42 170 43
201 18z"/>
<path d="M6025 11060 c-66 -14 -136 -44 -204 -88 -80 -52 -110 -54 -145 -7
-33 43 -88 59 -173 52 -69 -7 -135 -36 -157 -70 -33 -50 -244 -1122 -249
-1263 -2 -51 1 -58 26 -78 25 -18 42 -21 134 -21 102 0 105 1 128 28 33 38 64
143 125 422 69 321 104 445 147 527 67 128 211 228 339 236 60 4 65 3 94 -26
27 -28 30 -37 30 -94 0 -152 -104 -797 -160 -988 -29 -99 -6 -116 136 -100
107 12 134 20 164 52 34 35 56 95 94 251 44 179 72 352 97 587 34 333 25 398
-70 491 -38 37 -73 61 -106 73 -59 20 -193 29 -250 16z"/>
<path d="M7325 11059 c-115 -9 -181 -28 -247 -71 -69 -43 -152 -137 -190 -215
-30 -62 -33 -75 -33 -163 0 -78 4 -104 23 -145 45 -98 156 -176 427 -301 174
-80 225 -120 225 -177 0 -72 -71 -123 -187 -134 -115 -11 -223 23 -313 97 -92
76 -148 90 -266 66 -81 -17 -124 -37 -124 -59 0 -33 72 -156 116 -200 59 -58
177 -119 289 -149 109 -29 344 -32 458 -5 86 21 193 71 249 117 43 35 117 145
142 210 27 68 24 167 -7 234 -62 134 -197 232 -486 350 -165 68 -221 110 -221
168 0 54 54 93 148 108 86 15 171 -3 282 -57 120 -59 179 -65 312 -33 51 13
99 26 106 29 19 10 -251 272 -310 300 -82 39 -186 47 -393 30z"/>
<path d="M10395 11063 c-63 -14 -149 -48 -194 -77 -124 -78 -255 -242 -230
-288 25 -46 139 -62 235 -33 27 8 71 33 98 55 70 58 109 73 191 73 106 0 157
-34 175 -117 7 -28 10 -71 8 -96 -2 -37 -8 -48 -35 -66 -35 -23 -45 -25 -263
-54 -393 -53 -555 -163 -592 -403 -30 -194 57 -369 220 -445 51 -24 68 -27
167 -26 127 0 169 13 289 88 92 58 116 60 116 10 0 -76 44 -104 163 -104 140
0 151 13 161 181 6 114 34 300 81 539 64 326 68 446 19 547 -14 29 -42 66 -62
83 -50 42 -183 105 -263 124 -61 15 -234 20 -284 9z m232 -809 c10 -26 -55
-213 -93 -271 -75 -110 -206 -159 -336 -123 -106 30 -127 195 -37 282 43 41
169 87 307 112 109 20 151 20 159 0z"/>
<path d="M11812 8299 c4 -699 4 -709 58 -736 31 -16 87 -17 128 -2 44 15 50
44 55 269 5 226 14 261 71 285 115 48 181 -5 378 -305 99 -150 150 -207 213
-236 54 -26 99 -30 157 -13 80 21 55 88 -122 324 -62 83 -123 173 -137 201
-38 76 -30 95 61 139 71 34 75 38 111 105 49 95 85 204 85 260 0 56 -34 114
-118 203 -126 132 -149 138 -595 144 l-348 5 3 -643z m685 381 c50 -25 65 -38
82 -73 26 -54 26 -83 2 -123 -44 -73 -124 -109 -265 -122 -148 -14 -227 3
-246 54 -25 64 0 239 39 277 46 46 283 38 388 -13z"/>
<path d="M15330 8854 c-88 -50 -160 -139 -160 -198 0 -43 -19 -77 -49 -89 -35
-13 -50 -36 -57 -90 -7 -52 17 -116 46 -124 35 -9 50 -88 59 -323 12 -283 32
-363 105 -428 62 -55 225 -68 286 -23 21 15 26 28 28 73 4 67 -21 104 -74 114
-21 4 -41 16 -51 30 -32 50 -35 448 -3 517 9 18 25 30 51 37 53 14 79 51 79
110 0 58 -26 95 -73 104 -58 11 -70 34 -80 154 -9 111 -22 155 -47 159 -8 2
-35 -9 -60 -23z"/>
<path d="M20993 8859 c-96 -47 -173 -144 -173 -218 0 -20 -8 -39 -22 -51 -81
-71 -78 -66 -78 -124 0 -65 14 -100 45 -114 35 -16 45 -77 55 -347 11 -329 26
-391 102 -432 42 -22 226 -25 275 -5 39 17 58 59 48 109 -9 48 -39 81 -83 89
-60 11 -67 43 -67 294 0 260 3 271 89 296 41 13 69 67 61 119 -7 49 -38 83
-82 91 -51 10 -64 38 -74 165 -6 82 -12 116 -25 130 -21 23 -20 23 -71 -2z"/>
<path d="M13403 8560 c-98 -20 -183 -82 -253 -186 -71 -107 -95 -191 -94 -324
1 -89 6 -120 32 -200 67 -203 160 -277 369 -295 136 -12 273 30 362 111 110
99 80 184 -60 171 -61 -5 -82 -14 -166 -67 -68 -42 -126 -49 -181 -21 -48 24
-91 90 -99 151 -5 39 -4 40 33 57 33 14 86 18 324 22 l286 6 -28 125 c-34 153
-71 231 -150 316 -67 71 -149 117 -237 134 -61 11 -79 11 -138 0z m173 -188
c44 -32 89 -93 99 -134 14 -58 -64 -98 -190 -98 -160 1 -229 70 -154 154 31
36 157 106 189 106 9 0 35 -13 56 -28z"/>
<path d="M14398 8560 c-136 -24 -208 -72 -257 -172 -25 -50 -31 -74 -31 -127
0 -129 46 -179 240 -260 247 -102 310 -142 310 -196 0 -30 -37 -61 -88 -75
-59 -15 -135 1 -197 43 -131 88 -161 94 -275 56 l-63 -22 104 -102 c140 -137
169 -149 369 -149 233 -1 299 32 376 190 104 209 -7 342 -375 453 -178 54
-214 79 -188 132 34 68 152 76 291 19 105 -43 169 -49 229 -22 31 14 47 27 47
39 0 9 -30 47 -67 83 -57 55 -79 70 -136 88 -77 25 -216 36 -289 22z"/>
<path d="M16060 8561 c-132 -25 -187 -54 -252 -136 -54 -67 -60 -97 -23 -121
20 -13 42 -16 100 -12 63 4 80 9 110 34 133 106 223 98 287 -24 45 -87 32 -98
-192 -162 -79 -22 -165 -53 -192 -67 -161 -88 -209 -212 -135 -354 39 -77 94
-121 183 -149 125 -38 248 -22 329 44 51 42 65 45 65 12 0 -50 100 -90 173
-69 55 15 61 53 48 293 -17 301 -56 545 -96 606 -24 37 -76 71 -135 88 -66 20
-207 28 -270 17z m267 -552 c17 -15 17 -81 -2 -125 -40 -96 -142 -170 -220
-162 -104 12 -155 103 -105 186 14 23 40 43 83 62 117 55 207 69 244 39z"/>
<path d="M16855 8537 c-47 -72 -47 -616 1 -802 19 -79 54 -129 107 -157 35
-19 58 -22 142 -22 111 0 189 20 238 60 35 30 63 30 79 3 28 -45 138 -80 190
-60 50 19 53 46 53 513 0 418 0 427 -21 455 -19 25 -28 28 -85 31 -143 7 -138
20 -169 -470 -12 -190 -33 -279 -77 -320 -85 -79 -160 -63 -212 44 -41 85 -59
197 -66 419 -10 322 -13 329 -110 329 -46 0 -57 -4 -70 -23z"/>
<path d="M17975 8536 c-24 -37 -34 -179 -34 -476 0 -297 10 -439 33 -476 19
-28 53 -39 101 -30 62 12 68 31 81 285 16 299 44 416 117 477 28 24 34 25 108
18 89 -7 81 -15 114 101 9 33 19 67 21 76 9 33 -23 49 -100 49 -85 0 -146 -19
-198 -60 -46 -37 -55 -37 -63 0 -9 43 -40 60 -107 60 -50 0 -60 -3 -73 -24z"/>
<path d="M18853 8542 c-70 -25 -124 -62 -165 -114 -64 -80 -60 -101 34 -147
86 -43 128 -39 128 14 0 95 248 118 307 28 40 -61 -42 -128 -243 -197 -72 -24
-149 -53 -170 -64 -127 -66 -181 -224 -118 -350 77 -155 303 -204 492 -108 63
32 102 34 102 6 0 -42 109 -75 160 -48 41 22 48 77 49 354 1 279 -11 387 -55
485 -31 68 -62 100 -129 131 -44 20 -69 23 -195 25 -120 3 -154 0 -197 -15z
m297 -537 c19 -23 24 -109 10 -159 -22 -80 -79 -116 -182 -116 -55 0 -63 3
-94 34 -76 76 -29 169 114 225 86 34 133 39 152 16z"/>
<path d="M19735 8536 c-24 -37 -34 -179 -34 -476 0 -297 10 -439 33 -476 19
-28 53 -39 101 -30 63 12 67 30 77 284 12 339 26 409 94 482 79 84 142 100
192 50 62 -61 81 -164 91 -495 9 -320 12 -325 145 -325 56 0 89 19 103 60 18
53 17 509 -2 635 -33 223 -125 315 -315 315 -78 0 -131 -14 -235 -60 -47 -22
-50 -22 -60 -4 -29 51 -52 64 -114 64 -53 0 -63 -3 -76 -24z"/>
</g>
</svg>
