<svg width="441" height="66" viewBox="0 0 441 66" fill="none" xmlns="http://www.w3.org/2000/svg">
    <path
        d="M238.667 0.29099C237.228 0.578755 226.772 0.770598 215.646 0.770598C204.135 0.770598 195.214 1.15428 195.214 1.63389C195.214 2.1135 190.706 2.20942 184.471 1.92166C167.397 0.86652 116.175 0.482833 117.614 1.25021C118.285 1.72981 120.299 1.82574 122.218 1.63389C125.671 1.25021 125.671 1.25021 122.793 2.20942C121.259 2.68903 108.885 3.26456 95.2638 3.36048C81.7388 3.55233 70.8997 3.93601 71.0915 4.22378C71.8589 5.47076 65.9118 6.04629 44.9049 7.00551C29.1738 7.67696 22.8429 8.25249 20.9245 9.30763C18.3346 10.7465 18.5264 10.7465 25.8165 10.8424C34.2576 10.8424 35.025 12.473 26.8716 12.9527C23.7062 13.1445 22.1715 13.6241 22.3633 14.4874C22.4592 15.1589 21.5959 15.6385 20.4449 15.6385C18.6224 15.6385 18.5264 15.8303 19.6775 16.5977C20.7326 17.2691 20.0612 17.5569 17.0876 17.5569C14.8814 17.5569 12.7711 17.9406 12.4834 18.5161C12.1956 18.9957 12.5793 19.4753 13.4426 19.4753C14.3059 19.4753 14.6896 19.9549 14.4018 20.4345C14.0181 21.0101 15.6488 21.4897 18.4305 21.5856L23.0348 21.6815L19.0061 22.0652C15.9366 22.353 15.0733 22.8326 15.5529 23.8877C15.8406 24.5592 16.8958 25.2306 17.9509 25.2306C18.9101 25.2306 19.4857 25.7102 19.1979 26.1899C18.9101 26.7654 19.102 27.1491 19.6775 27.1491C20.349 27.1491 20.0612 28.3001 19.102 30.0267C17.6631 32.3288 16.608 32.9044 12.2915 33.4799C7.11176 34.0554 5.19333 35.782 9.70165 35.782C11.0446 35.782 11.9078 36.1657 11.5242 36.7412C11.1405 37.3168 12.3875 37.7964 14.5937 37.7964C16.7999 37.8923 15.5529 38.276 11.4282 38.6597C3.46674 39.523 0.301322 40.3863 0.972774 41.5373C1.26054 42.0169 0.876852 42.5925 0.301322 42.7843C-0.37013 43.0721 0.109478 43.3598 1.45238 43.3598C2.79529 43.4558 4.80964 43.7435 5.9607 44.0313C7.68729 44.5109 7.87914 44.8946 6.91992 45.7579C6.24847 46.4293 5.09741 47.1967 4.33003 47.4845C3.56266 47.6763 6.53623 48.2518 11.0446 48.6355C22.3633 49.5947 23.2266 51.1295 12.3875 51.1295C2.98713 51.1295 -1.61711 52.5683 5.38517 53.2398C7.68729 53.5275 10.3731 53.3357 11.2364 52.8561C13.4426 51.8009 17.4713 51.8969 18.2387 53.0479C18.5264 53.5275 18.3346 54.0071 17.855 54.0071C15.9366 54.0071 16.7999 55.446 19.3897 56.597C20.8286 57.2685 23.3225 57.844 24.8573 57.844C30.3248 57.844 48.9336 59.9543 50.4684 60.7217C51.3317 61.2013 60.9238 61.585 71.763 61.585C83.3695 61.6809 92.578 62.0646 94.2087 62.736C96.8945 63.7912 118.285 63.8871 131.426 62.9279C139.867 62.3523 159.052 62.5442 163.944 63.2156C166.534 63.5993 167.397 63.5034 167.013 62.736C166.534 61.9686 171.713 61.6809 185.814 61.7768C199.435 61.8727 203.847 62.1605 200.586 62.736C197.996 63.1197 195.406 63.983 194.831 64.6544C194.063 65.5177 194.063 65.6137 194.926 65.1341C195.598 64.7504 196.941 64.9422 197.9 65.4218C199.147 66.0933 200.874 65.9014 203.751 64.9422C208.931 63.2156 232.624 62.1605 232.624 63.7912C232.624 64.4626 234.254 64.6544 237.708 64.1748C240.393 63.7912 253.726 63.3115 267.155 63.1197C280.585 62.9279 299.289 62.4483 308.69 62.1605C317.994 61.7768 325.668 61.7768 325.668 62.0646C325.668 62.3523 324.229 63.0238 322.598 63.5034C320.296 64.1748 324.708 64.3667 337.658 64.0789C347.73 63.8871 356.075 63.6952 356.267 63.6952C356.459 63.5993 356.363 63.0238 356.075 62.2564C355.403 60.4339 359.432 59.7624 369.696 59.8584C375.547 59.9543 377.274 60.1461 375.547 60.7217C372.286 61.8727 402.021 60.9135 410.175 59.6665C413.628 59.091 416.889 58.8032 417.369 58.8991C419.287 59.2828 428.688 58.5155 427.153 58.1318C426.194 57.9399 425.426 57.3644 425.426 56.8848C425.426 55.9256 429.167 54.5827 429.935 55.35C430.798 56.1174 435.594 53.3357 438.855 50.1703C441.445 47.6763 441.541 47.3885 439.815 47.1008C437.992 46.813 437.992 46.6212 439.335 44.0313C441.061 40.7699 440.486 38.1801 438.28 39.0434C437.512 39.3311 437.129 39.2352 437.416 38.6597C437.704 38.0841 438.759 37.7005 439.623 37.6045C440.87 37.6045 440.774 37.3168 439.143 36.5494C437.896 35.9739 436.937 35.1106 436.937 34.631C436.937 34.2473 436.265 33.8636 435.402 33.8636C434.539 33.8636 434.251 33.384 434.635 32.7125C435.978 30.6022 435.786 28.0124 434.347 28.492C433.676 28.7797 433.1 28.5879 433.1 28.1083C433.1 27.5328 432.333 27.1491 431.469 27.0531C430.03 27.0531 430.03 26.8613 431.661 26.1899C433.484 25.4225 433.484 25.3266 431.373 25.3266C428.4 25.2306 425.234 23.4081 425.906 22.2571C426.29 21.7775 425.618 21.3938 424.467 21.3938C423.316 21.3938 422.74 20.9142 423.028 20.4345C423.316 19.859 424.467 19.4753 425.522 19.4753C426.481 19.4753 427.345 18.9957 427.345 18.4202C427.345 17.6528 425.33 17.461 420.63 17.9406C416.218 18.4202 413.916 18.3243 413.916 17.6528C413.916 17.0773 414.971 16.4058 416.314 16.0221C419.959 15.1589 419.287 13.3363 415.642 14.1037C410.462 15.1589 386.194 13.6241 386.674 12.2812C386.962 11.5138 389.839 11.1301 395.019 11.1301C403.268 11.0342 410.942 10.2668 411.805 9.40355C412.093 9.11579 406.913 9.01986 400.391 9.11579C387.345 9.40355 372.669 7.48512 372.669 5.47076C372.669 4.79931 373.149 4.12786 373.629 3.93601C374.204 3.74417 371.135 3.74417 366.914 4.03194C360.391 4.3197 358.953 4.03194 357.897 2.68903C357.226 1.72981 355.979 1.25021 354.828 1.53797C353.197 1.92166 353.293 2.01758 355.212 2.1135C356.363 2.1135 357.322 2.68903 357.322 3.36048C357.322 4.99115 323.941 3.55233 319.337 1.63389C317.418 0.86652 316.171 0.674676 316.555 1.15428C316.939 1.82574 315.116 2.01758 311.088 1.72981C302.551 1.15428 296.508 1.15428 280.105 1.63389C272.239 1.82574 264.182 1.63389 262.359 1.15428C258.427 0.195068 242.504 -0.380462 238.667 0.29099ZM353.005 60.5298C355.308 61.2972 338.713 62.4483 335.26 61.7768C333.246 61.2972 333.437 61.2013 336.699 60.7217C342.358 59.8584 350.799 59.7624 353.005 60.5298Z"
        fill="#11492C" />
    <path
        d="M361.926 1.92155C363.077 2.11339 364.804 2.11339 365.763 1.92155C366.626 1.63378 365.667 1.44194 363.557 1.53786C361.447 1.53786 360.679 1.7297 361.926 1.92155Z"
        fill="#11492C" />
    <path
        d="M372.478 1.92155C374.108 2.11339 376.986 2.11339 378.712 1.92155C380.343 1.7297 379 1.53786 375.547 1.53786C372.094 1.53786 370.751 1.7297 372.478 1.92155Z"
        fill="#11492C" />
    <path
        d="M49.2214 2.88053C50.948 3.07237 53.5379 3.07237 54.9767 2.88053C56.4155 2.68869 54.9767 2.49684 51.8113 2.49684C48.6458 2.49684 47.4948 2.68869 49.2214 2.88053Z"
        fill="#11492C" />
    <path
        d="M391.374 7.00514C391.662 7.48475 392.142 7.96436 392.429 7.96436C392.621 7.96436 392.813 7.48475 392.813 7.00514C392.813 6.42961 392.333 6.04592 391.758 6.04592C391.278 6.04592 391.086 6.42961 391.374 7.00514Z"
        fill="#11492C" />
    <path
        d="M421.398 14.3917C422.069 14.6794 422.932 14.5835 423.22 14.2958C423.604 14.008 423.028 13.7202 421.973 13.8161C420.918 13.8161 420.63 14.1039 421.398 14.3917Z"
        fill="#11492C" />
    <path
        d="M365.763 62.3522C366.914 62.5441 368.832 62.5441 370.079 62.3522C371.23 62.1604 370.271 61.9685 367.873 61.9685C365.475 61.9685 364.516 62.1604 365.763 62.3522Z"
        fill="#11492C" />
    <path
        d="M163.56 64.5587L158.284 65.2301L164.807 65.3261C168.548 65.422 171.234 65.1342 171.234 64.5587C171.234 63.9832 170.658 63.6954 170.083 63.7913C169.411 63.8872 166.438 64.175 163.56 64.5587Z"
        fill="#11492C" />
    <path
        d="M315.884 64.2706C316.555 64.5583 317.418 64.4624 317.706 64.1747C318.09 63.8869 317.514 63.5991 316.459 63.6951C315.404 63.6951 315.116 63.9828 315.884 64.2706Z"
        fill="#11492C" />
    <path
        d="M360.967 64.2706C361.638 64.5583 362.502 64.4624 362.789 64.1747C363.173 63.8869 362.598 63.5991 361.542 63.6951C360.487 63.6951 360.2 63.9828 360.967 64.2706Z"
        fill="#11492C" />
    <path
        d="M212.288 65.2301C212.96 65.5178 213.823 65.4219 214.111 65.1341C214.494 64.8464 213.919 64.5586 212.864 64.6545C211.809 64.6545 211.521 64.9423 212.288 65.2301Z"
        fill="#11492C" />
</svg>